<?xml version="1.0" standalone="no"?><!DOCTYPE svg PUBLIC "-//W3C//DTD SVG 1.1//EN" "http://www.w3.org/Graphics/SVG/1.1/DTD/svg11.dtd"><svg t="1600911735860" class="icon" viewBox="0 0 1024 1024" version="1.1" xmlns="http://www.w3.org/2000/svg" p-id="1991" xmlns:xlink="http://www.w3.org/1999/xlink" width="200" height="200"><defs><style type="text/css"></style></defs><path d="M0 0v1024h1024V0H0z m844.8 883.2c-147.2-57.6-249.6-140.8-300.8-256-38.4 108.8-140.8 198.4-307.2 268.8-12.8-19.2-25.6-32-38.4-51.2 172.8-57.6 275.2-147.2 307.2-262.4H204.8v-51.2H512V396.8H249.6v-57.6h172.8C377.6 294.4 345.6 256 313.6 230.4l44.8-38.4c38.4 38.4 76.8 70.4 115.2 102.4l-51.2 44.8h172.8c38.4-51.2 70.4-102.4 96-147.2l57.6 32c-32 44.8-64 76.8-89.6 115.2h179.2v51.2H569.6v134.4h313.6V576H582.4c57.6 121.6 160 198.4 320 243.2-25.6 32-44.8 51.2-57.6 64z" fill="#bfbfbf" p-id="1992"></path></svg>