<?xml version="1.0" standalone="no"?><!DOCTYPE svg PUBLIC "-//W3C//DTD SVG 1.1//EN" "http://www.w3.org/Graphics/SVG/1.1/DTD/svg11.dtd"><svg t="1600911688261" class="icon" viewBox="0 0 1024 1024" version="1.1" xmlns="http://www.w3.org/2000/svg" p-id="1208" data-spm-anchor-id="a313x.7781069.0.i0" xmlns:xlink="http://www.w3.org/1999/xlink" width="200" height="200"><defs><style type="text/css"></style></defs><path d="M435.2 512h224V313.6H435.2V512zM0 0v1024h1024V0H0z m896 569.6h-179.2v320h-57.6v-320H435.2c0 83.2-12.8 147.2-38.4 192-19.2 44.8-76.8 89.6-160 134.4-12.8-19.2-25.6-32-38.4-51.2 70.4-38.4 121.6-76.8 147.2-115.2 19.2-32 32-89.6 32-166.4H192V512h185.6V313.6H224V256h640v57.6h-147.2V512H896v57.6z" fill="#1296db" p-id="1209" data-spm-anchor-id="a313x.7781069.0.i2"></path></svg>